<svg width="485" height="485" viewBox="0 0 485 485" fill="none" xmlns="http://www.w3.org/2000/svg">
<circle cx="242.5" cy="242.5" r="242.5" fill="#E60023"/>
<path d="M191.396 332.312L261.956 126.68H304.628L307.652 332.312L378.212 126.68H401.732L308.324 377H259.94L255.908 205.976L192.068 377H143.684L138.308 147.512C122.628 153.336 110.308 162.632 101.348 175.4C92.6116 187.944 88.2436 203.4 88.2436 221.768C88.2436 225.8 88.4676 229.16 88.9156 231.848C89.3636 234.536 89.8116 236.776 90.2596 238.568C90.7076 240.136 91.1556 241.48 91.6036 242.6C92.2756 243.496 92.7236 244.28 92.9476 244.952C81.7476 244.952 72.8996 242.712 66.4036 238.232C60.1316 233.528 56.9956 225.464 56.9956 214.04C56.9956 202.168 60.4676 190.856 67.4116 180.104C74.5796 169.352 83.7636 159.944 94.9636 151.88C106.164 143.592 118.708 137.096 132.596 132.392C146.708 127.464 160.708 125 174.596 125C177.06 125 179.412 125.112 181.652 125.336C183.892 125.336 186.132 125.448 188.372 125.672L191.396 332.312Z" fill="white"/>
</svg>
